<svg xmlns="http://www.w3.org/2000/svg" viewBox="0 0 100 100">
  <!-- Fondo redondeado teal -->
  <rect width="100" height="100" rx="20" fill="#0d9488"/>

  <!-- Birrete / mortero (graduación) -->
  <path d="M50 18 L18 38 L50 58 L82 38 Z" fill="#ffffff" opacity="0.95"/>
  <path d="M18 38 L18 56 Q18 62 50 68 Q82 62 82 56 L82 38" fill="#ffffff" opacity="0.7"/>

  <!-- Borla del birrete -->
  <path d="M50 18 L50 12 Q50 8 54 8" fill="none" stroke="#fbbf24" stroke-width="2.5" stroke-linecap="round"/>
  <circle cx="56" cy="8" r="2.5" fill="#fbbf24"/>

  <!-- Libro abierto en la base -->
  <path d="M25 68 L25 88 Q50 78 50 78 L50 58" fill="none" stroke="rgba(255,255,255,0.85)" stroke-width="3" stroke-linecap="round" stroke-linejoin="round"/>
  <path d="M75 68 L75 88 Q50 78 50 78 L50 58" fill="none" stroke="rgba(255,255,255,0.85)" stroke-width="3" stroke-linecap="round" stroke-linejoin="round"/>

  <!-- Páginas del libro -->
  <path d="M50 70 L50 90" stroke="rgba(255,255,255,0.35)" stroke-width="1.5"/>
</svg>
